<svg width="38.334473" height="25.142090" viewBox="0 0 38.3345 25.1421" fill="none" xmlns="http://www.w3.org/2000/svg" xmlns:xlink="http://www.w3.org/1999/xlink">
	<desc>
			Created with Pixso.
	</desc>
	<defs>
		<linearGradient x1="19.167339" y1="25.142090" x2="19.167339" y2="0.000000" id="paint_linear_8_528_0" gradientUnits="userSpaceOnUse">
			<stop stop-color="#E59703"/>
			<stop offset="0.231000" stop-color="#E59703"/>
			<stop offset="0.234000" stop-color="#FFFFFF"/>
			<stop offset="0.761000" stop-color="#FFFFFF"/>
			<stop offset="0.766000" stop-color="#5457BB"/>
			<stop offset="1.000000" stop-color="#5457BB"/>
		</linearGradient>
	</defs>
	<path id="Shape 327" d="M1.66 0L36.66 0C36.89 0 37.11 0.05 37.31 0.14C37.52 0.23 37.7 0.36 37.86 0.52C38.01 0.68 38.13 0.87 38.21 1.08C38.29 1.28 38.33 1.51 38.33 1.73L38.33 23.4C38.33 23.63 38.29 23.85 38.21 24.06C38.13 24.26 38.01 24.45 37.86 24.62C37.7 24.78 37.52 24.91 37.31 25C37.11 25.08 36.89 25.13 36.66 25.14L1.66 25.14C1.44 25.13 1.22 25.08 1.01 25C0.81 24.91 0.62 24.78 0.47 24.62C0.31 24.45 0.19 24.26 0.11 24.06C0.03 23.85 -0.01 23.63 0 23.4L0 1.73C-0.01 1.51 0.03 1.28 0.11 1.08C0.19 0.87 0.31 0.68 0.47 0.52C0.62 0.36 0.81 0.23 1.01 0.14C1.22 0.05 1.44 0 1.66 0Z" fill="url(#paint_linear_8_528_0)" fill-opacity="1.000000" fill-rule="nonzero"/>
</svg>
