<svg width="38.395996" height="26.000000" viewBox="0 0 38.396 26" fill="none" xmlns="http://www.w3.org/2000/svg" xmlns:xlink="http://www.w3.org/1999/xlink">
	<desc>
			Created with Pixso.
	</desc>
	<defs/>
	<path id="Shape 327" d="M1.65 0L36.34 0C36.56 0 36.78 0.05 36.99 0.14C37.19 0.24 37.37 0.37 37.52 0.53C37.68 0.7 37.8 0.9 37.88 1.11C37.96 1.33 38 1.56 37.99 1.79L37.99 24.2C38 24.67 37.83 25.12 37.52 25.46C37.21 25.79 36.79 25.99 36.34 26L1.65 26C1.2 25.99 0.78 25.79 0.47 25.46C0.16 25.12 -0.01 24.67 0 24.2L0 1.79C-0.01 1.56 0.03 1.33 0.11 1.11C0.19 0.9 0.31 0.7 0.47 0.53C0.62 0.37 0.8 0.24 1.01 0.14C1.21 0.05 1.43 0 1.65 0Z" fill="#353A40" fill-opacity="1.000000" fill-rule="nonzero"/>
	<path id="WESTERN UNION" d="M22.77 16.98C22.5 16.84 22.28 16.63 22.14 16.37C21.97 16.05 21.89 15.69 21.9 15.33C21.89 15.09 21.92 14.84 22 14.61C22.08 14.37 22.21 14.16 22.38 13.98C22.55 13.81 22.76 13.68 22.99 13.6C23.21 13.51 23.46 13.48 23.7 13.49C23.94 13.48 24.18 13.51 24.41 13.59C24.64 13.67 24.85 13.8 25.03 13.97C25.2 14.15 25.32 14.36 25.4 14.59C25.48 14.82 25.52 15.06 25.5 15.3C25.52 15.66 25.45 16.01 25.3 16.33C25.17 16.59 24.96 16.8 24.71 16.95C24.41 17.1 24.08 17.18 23.74 17.17C23.41 17.18 23.07 17.11 22.77 16.98ZM23.17 14.56C23.04 14.8 22.98 15.06 22.98 15.33C22.98 15.61 23.04 15.87 23.17 16.11C23.24 16.18 23.32 16.24 23.41 16.28C23.51 16.32 23.61 16.35 23.71 16.35C23.81 16.35 23.91 16.32 24 16.28C24.09 16.24 24.17 16.18 24.24 16.11C24.39 15.86 24.46 15.57 24.43 15.28C24.45 15.02 24.38 14.76 24.23 14.55C24.16 14.47 24.08 14.41 23.99 14.37C23.9 14.33 23.79 14.32 23.69 14.32C23.59 14.32 23.5 14.34 23.4 14.38C23.31 14.42 23.23 14.48 23.17 14.56ZM13.26 17.13C13.09 17.12 12.92 17.07 12.76 16.99C12.62 16.91 12.49 16.81 12.39 16.68C12.29 16.56 12.21 16.42 12.16 16.27C12.1 16.08 12.07 15.87 12.06 15.67L12.06 13.55L13.13 13.55L13.13 15.72C13.13 15.8 13.14 15.89 13.17 15.96C13.2 16.04 13.24 16.11 13.29 16.17C13.41 16.28 13.57 16.34 13.73 16.34C13.89 16.34 14.04 16.28 14.16 16.17C14.22 16.11 14.26 16.04 14.29 15.96C14.32 15.88 14.33 15.8 14.32 15.72L14.32 13.55L15.39 13.55L15.39 15.67C15.39 15.87 15.36 16.08 15.29 16.27C15.23 16.45 15.13 16.62 14.99 16.76C14.87 16.89 14.73 16.99 14.56 17.06C14.32 17.14 14.07 17.18 13.81 17.17C13.63 17.17 13.44 17.16 13.26 17.13L13.26 17.13ZM28.4 17.11L27.1 15.16L27.1 17.11L26.09 17.11L26.09 13.55L27.09 13.55L28.4 15.52L28.4 13.55L29.41 13.55L29.41 17.11L28.4 17.11ZM18.42 17.11L17.12 15.16L17.12 17.11L16.11 17.11L16.11 13.55L17.11 13.55L18.42 15.52L18.42 13.55L19.43 13.55L19.43 17.11L18.42 17.11ZM20.19 17.1L20.19 13.55L21.27 13.55L21.27 17.1L20.19 17.1ZM11.99 12.12C11.75 11.88 11.62 11.56 11.6 11.23L12.62 11.17C12.63 11.3 12.68 11.44 12.75 11.55C12.81 11.62 12.88 11.68 12.97 11.72C13.05 11.76 13.14 11.78 13.23 11.77C13.36 11.78 13.48 11.74 13.58 11.66C13.62 11.63 13.65 11.59 13.67 11.55C13.69 11.51 13.71 11.46 13.71 11.41C13.71 11.36 13.7 11.32 13.68 11.27C13.66 11.23 13.63 11.19 13.59 11.16C13.42 11.05 13.24 10.98 13.04 10.95C12.67 10.89 12.33 10.74 12.03 10.52C11.94 10.44 11.86 10.33 11.81 10.21C11.75 10.09 11.73 9.97 11.73 9.84C11.73 9.65 11.79 9.47 11.89 9.32C12 9.15 12.16 9.01 12.35 8.94C12.63 8.83 12.92 8.78 13.21 8.8C13.57 8.77 13.92 8.86 14.23 9.05C14.35 9.15 14.45 9.27 14.52 9.41C14.59 9.55 14.63 9.7 14.64 9.86L13.63 9.92C13.62 9.78 13.56 9.66 13.46 9.57C13.36 9.49 13.23 9.45 13.1 9.46C13 9.45 12.9 9.48 12.82 9.54C12.79 9.56 12.77 9.59 12.75 9.63C12.73 9.66 12.73 9.7 12.73 9.74C12.73 9.77 12.73 9.8 12.75 9.83C12.76 9.85 12.78 9.88 12.8 9.89C12.91 9.96 13.04 10.01 13.17 10.02C13.51 10.09 13.85 10.19 14.17 10.34C14.36 10.42 14.51 10.56 14.62 10.73C14.71 10.89 14.76 11.07 14.76 11.26C14.76 11.48 14.69 11.7 14.57 11.89C14.45 12.08 14.27 12.23 14.05 12.33C13.79 12.43 13.5 12.48 13.22 12.48C12.78 12.52 12.33 12.39 11.99 12.12L11.99 12.12ZM28.4 12.41L27.1 10.46L27.1 12.41L26.09 12.41L26.09 8.85L27.09 8.85L28.4 10.82L28.4 8.85L29.41 8.85L29.41 12.41L28.4 12.41ZM24.52 12.41L23.95 11.32C23.9 11.22 23.84 11.13 23.76 11.05C23.68 10.99 23.59 10.96 23.49 10.97L23.4 10.97L23.4 12.41L22.32 12.41L22.32 8.85L24.11 8.85C24.36 8.84 24.62 8.87 24.87 8.94C25.04 9 25.19 9.11 25.29 9.26C25.4 9.43 25.46 9.64 25.45 9.84C25.46 10.02 25.42 10.19 25.33 10.35C25.25 10.49 25.13 10.61 24.99 10.7C24.87 10.76 24.75 10.81 24.61 10.84C24.71 10.87 24.81 10.91 24.89 10.97C24.96 11.03 25.02 11.09 25.06 11.16C25.12 11.23 25.17 11.3 25.22 11.38L25.74 12.41L24.52 12.41ZM23.4 10.29L23.85 10.29C23.95 10.29 24.04 10.27 24.13 10.24C24.2 10.23 24.27 10.19 24.31 10.13C24.35 10.07 24.38 10 24.38 9.93C24.38 9.88 24.37 9.83 24.35 9.78C24.33 9.74 24.31 9.69 24.27 9.66C24.15 9.59 24.01 9.56 23.87 9.57L23.4 9.57L23.4 10.29ZM18.8 12.41L18.8 8.85L21.68 8.85L21.68 9.61L19.88 9.61L19.88 10.18L21.55 10.18L21.55 10.9L19.88 10.9L19.88 11.6L21.73 11.6L21.73 12.41L18.8 12.41ZM16.15 12.41L16.15 9.73L15.05 9.73L15.05 8.85L18.32 8.85L18.32 9.73L17.22 9.73L17.22 12.41L16.15 12.41ZM8.28 12.41L8.28 8.85L11.16 8.85L11.16 9.61L9.36 9.61L9.36 10.18L11.03 10.18L11.03 10.9L9.35 10.9L9.35 11.6L11.2 11.6L11.2 12.41L8.28 12.41ZM6.11 12.41L5.5 10.17L4.9 12.41L3.84 12.41L3.07 8.85L4.09 8.85L4.46 10.84L5 8.85L6.01 8.85L6.55 10.84L6.92 8.85L7.93 8.85L7.17 12.41L6.11 12.41Z" fill="#ECD345" fill-opacity="1.000000" fill-rule="nonzero"/>
	<path id="Shape 338" d="M34.2 17.17L34.2 8.79L35.4 8.79L35.4 17.17L34.2 17.17ZM31.21 17.17L31.21 8.79L32.41 8.79L32.41 17.17L31.21 17.17Z" fill="#ECD345" fill-opacity="1.000000" fill-rule="nonzero"/>
</svg>
